<svg id="Capa_1" enable-background="new 0 0 512 512" height="512" viewBox="0 0 512 512" width="512" xmlns="http://www.w3.org/2000/svg"><path d="m484.5 504.5h-457c-11.046 0-20-8.954-20-20v-457c0-11.046 8.954-20 20-20h457c11.046 0 20 8.954 20 20v457c0 11.046-8.954 20-20 20z" fill="#e4f6ff"/><path d="m484.297 7.5h-26.264c11.158 0 20.203 9.045 20.203 20.203v456.594c0 11.158-9.045 20.203-20.203 20.203h26.264c11.158 0 20.203-9.045 20.203-20.203v-456.594c0-11.158-9.045-20.203-20.203-20.203z" fill="#d3effb"/><path d="m504.5 68.11h-497v-40.61c0-11.046 8.954-20 20-20h457c11.046 0 20 8.954 20 20z" fill="#90d8f9"/><path d="m484.297 7.5h-26.264c11.158 0 20.203 9.045 20.203 20.203v40.407h26.264v-40.407c0-11.158-9.045-20.203-20.203-20.203z" fill="#75cef9"/><path d="m232.588 304.897v-37.184h-27.952c-2.027-7.958-5.332-15.405-9.681-22.112l19.3-19.3-24.173-24.173-19.773 19.772c-6.045-3.592-12.638-6.359-19.625-8.139v-27.952h-34.186v27.289c-8.047 1.716-15.614 4.726-22.474 8.802l-19.772-19.772-24.173 24.173 19.3 19.3c-4.349 6.707-7.654 14.154-9.681 22.112h-27.954v37.184h27.952c2.027 7.958 5.332 15.405 9.681 22.112l-19.3 19.3 24.173 24.173 19.772-19.772c6.86 4.076 14.427 7.086 22.474 8.802v27.289h34.186v-27.952c6.988-1.78 13.58-4.547 19.625-8.139l19.772 19.772 24.173-24.173-19.3-19.3c4.349-6.707 7.654-14.154 9.681-22.112zm-100.422 7.398c-14.354 0-25.99-11.636-25.99-25.991 0-14.354 11.636-25.99 25.99-25.99s25.99 11.636 25.99 25.99c.001 14.355-11.636 25.991-25.99 25.991z" fill="#f4dd45"/><path d="m232.588 304.897v-37.184h-27.952c-.46-1.808-.995-3.585-1.585-5.337-17.095 42.223-58.485 72.011-106.839 72.011-10.453 0-20.577-1.4-30.205-4.009l-15.93 15.93 24.173 24.173 19.772-19.772c6.86 4.076 14.427 7.086 22.474 8.802v27.289h34.186v-27.952c6.988-1.78 13.58-4.547 19.625-8.139l19.772 19.772 24.173-24.173-19.3-19.3c4.349-6.707 7.654-14.154 9.681-22.112h27.955z" fill="#ecc32e"/><path d="m504.5 235.797h-78.333l-35.815-50.508h-102.027l-31.315 50.508h80.813l31.315 50.508-31.315 50.508h-80.813l31.315 50.508h102.027l35.815-50.508h78.333z" fill="#e2dfe2"/><path d="m275.799 367.118h91.989c6.549 0 12.692-3.175 16.48-8.517l23.736-33.474c3.788-5.342 9.931-8.517 16.48-8.517h80.016v20.203h-78.333l-35.815 50.508h-102.027z" fill="#d3ced5"/><path d="m504.5 301.457v-30.305h-73.894c-8.284 0-15 6.716-15 15v.305c0 8.284 6.716 15 15 15z" fill="#665e66"/><circle cx="48.917" cy="37.805" r="10.102"/><circle cx="90.333" cy="37.805" r="10.102"/><circle cx="131.75" cy="37.805" r="10.102"/><path d="m484.5 0h-457c-15.164 0-27.5 12.336-27.5 27.5v457c0 15.164 12.336 27.5 27.5 27.5h110.958c4.142 0 7.5-3.357 7.5-7.5s-3.358-7.5-7.5-7.5h-110.958c-6.893 0-12.5-5.607-12.5-12.5v-408.891h363.604c4.143 0 7.5-3.357 7.5-7.5s-3.357-7.5-7.5-7.5h-363.604v-33.109c0-6.893 5.607-12.5 12.5-12.5h457c6.893 0 12.5 5.607 12.5 12.5v33.109h-83.5c-4.143 0-7.5 3.357-7.5 7.5s3.357 7.5 7.5 7.5h83.5v152.688h-66.957l-33.573-47.346c-1.406-1.983-3.687-3.162-6.118-3.162h-26.727c-4.143 0-7.5 3.357-7.5 7.5s3.357 7.5 7.5 7.5h22.851l33.573 47.346c1.406 1.983 3.687 3.162 6.118 3.162h70.833v20.355h-66.242c-12.49 0-22.652 10.162-22.652 22.652s10.162 22.652 22.652 22.652h66.242v20.356h-70.833c-2.432 0-4.712 1.179-6.118 3.162l-33.573 47.346h-93.976l-22.016-35.508h67.339c2.596 0 5.007-1.342 6.374-3.548l31.315-50.509c1.501-2.421 1.501-5.483 0-7.904l-31.315-50.508c-1.367-2.206-3.778-3.548-6.374-3.548h-67.339l22.016-35.508h35.906c4.143 0 7.5-3.357 7.5-7.5s-3.357-7.5-7.5-7.5h-40.081c-2.596 0-5.007 1.342-6.374 3.548l-31.315 50.508c-1.435 2.313-1.503 5.222-.179 7.6s3.832 3.853 6.553 3.853h76.639l26.666 43.008-26.666 43.009h-76.639c-2.722 0-5.229 1.475-6.553 3.853s-1.255 5.286.179 7.6l31.315 50.508c1.367 2.206 3.778 3.548 6.374 3.548h102.026c2.432 0 4.712-1.179 6.118-3.162l33.573-47.346h66.958v140.186c0 6.893-5.607 12.5-12.5 12.5h-310.875c-4.142 0-7.5 3.357-7.5 7.5s3.358 7.5 7.5 7.5h310.875c15.164 0 27.5-12.336 27.5-27.5v-457c0-15.164-12.336-27.5-27.5-27.5zm-53.742 293.957c-4.22 0-7.652-3.433-7.652-7.652s3.433-7.652 7.652-7.652h66.242v15.305h-66.242z"/><path d="m184.778 375.786c2.93 2.928 7.678 2.928 10.606 0l24.173-24.173c2.929-2.93 2.929-7.678 0-10.607l-15.172-15.173c2.356-4.302 4.315-8.792 5.861-13.437h22.341c4.142 0 7.5-3.357 7.5-7.5v-37.184c0-4.143-3.358-7.5-7.5-7.5h-22.341c-1.546-4.644-3.506-9.136-5.861-13.437l15.172-15.172c1.407-1.407 2.197-3.314 2.197-5.304s-.79-3.896-2.197-5.304l-24.173-24.173c-1.406-1.407-3.314-2.197-5.303-2.197s-3.897.79-5.303 2.196l-15.804 15.804c-3.49-1.749-7.096-3.244-10.791-4.476v-22.343c0-4.143-3.358-7.5-7.5-7.5h-34.187c-4.142 0-7.5 3.357-7.5 7.5v21.453c-4.698 1.376-9.258 3.169-13.64 5.365l-15.804-15.804c-1.406-1.406-3.314-2.196-5.303-2.196s-3.897.79-5.303 2.197l-24.173 24.173c-1.407 1.407-2.197 3.314-2.197 5.304s.79 3.896 2.197 5.304l15.172 15.172c-2.355 4.301-4.315 8.793-5.861 13.437h-22.34c-4.142 0-7.5 3.357-7.5 7.5v37.184c0 4.143 3.358 7.5 7.5 7.5h22.341c1.546 4.645 3.505 9.135 5.861 13.437l-15.172 15.173c-2.929 2.93-2.929 7.678 0 10.607l24.173 24.173c2.929 2.928 7.678 2.928 10.606 0l15.803-15.804c4.382 2.196 8.941 3.99 13.64 5.366v21.453c0 4.143 3.358 7.5 7.5 7.5h34.187c4.142 0 7.5-3.357 7.5-7.5v-22.343c3.696-1.231 7.301-2.728 10.792-4.477zm-35.946-24.204c-3.323.847-5.648 3.839-5.648 7.268v20.452h-19.187v-19.789c0-3.539-2.475-6.597-5.936-7.335-7.128-1.521-13.927-4.183-20.207-7.915-2.947-1.752-6.71-1.281-9.135 1.144l-14.469 14.47-13.566-13.567 13.997-13.998c2.503-2.502 2.915-6.414.99-9.383-3.98-6.138-6.909-12.828-8.707-19.884-.847-3.322-3.839-5.648-7.268-5.648h-20.452v-22.184h20.452c3.429 0 6.421-2.325 7.268-5.648 1.797-7.057 4.727-13.746 8.707-19.884 1.925-2.969 1.513-6.881-.99-9.384l-13.997-13.996 13.567-13.567 14.469 14.47c2.425 2.425 6.186 2.897 9.134 1.144 6.281-3.731 13.079-6.395 20.207-7.914 3.461-.738 5.936-3.796 5.936-7.335v-19.789h19.187v20.452c0 3.429 2.326 6.421 5.648 7.268 6.189 1.577 12.126 4.039 17.646 7.319 2.949 1.751 6.709 1.281 9.134-1.145l14.469-14.47 13.567 13.567-13.997 13.996c-2.503 2.503-2.915 6.415-.99 9.384 3.98 6.138 6.909 12.827 8.707 19.884.847 3.323 3.839 5.648 7.268 5.648h20.452v22.184h-20.452c-3.429 0-6.421 2.326-7.268 5.648-1.797 7.056-4.727 13.746-8.707 19.884-1.925 2.969-1.513 6.881.99 9.383l13.997 13.998-13.567 13.566-14.469-14.47c-2.425-2.425-6.186-2.896-9.135-1.144-5.518 3.28-11.455 5.743-17.645 7.32z"/><path d="m132.166 252.814c-18.467 0-33.491 15.023-33.491 33.49s15.024 33.49 33.491 33.49 33.491-15.023 33.491-33.49-15.024-33.49-33.491-33.49zm0 51.981c-10.196 0-18.491-8.295-18.491-18.49s8.295-18.49 18.491-18.49 18.491 8.295 18.491 18.49-8.295 18.49-18.491 18.49z"/></svg>